<svg version="1.1"
      xmlns="http://www.w3.org/2000/svg"
      xmlns:xlink="http://www.w3.org/1999/xlink"  id="snapshot-40229" width="250" height="250" viewBox="0 0 250 250"><desc>This image was made on Patterninja.com</desc><defs>
<!-- image 82922 -->
<g id="transformed-82922" data-image="82922" transform="translate(139.70177871865297, 53.06500163029854) rotate(341, 25.298221281347036, 19.93499836970146)"><g><svg version="1.1" width="50.59644256269407px" height="39.86999673940292px" viewBox="0 0 50.59644256269407 39.86999673940292"><g id="original-82922"><svg xmlns="http://www.w3.org/2000/svg" viewBox="0 0 72 57" xmlns:xlink="http://www.w3.org/1999/xlink" version="1.1" preserveAspectRatio="xMidYMid meet">
  <path fill-rule="evenodd" d="M24 55h-6.982c-9.389 0-17-7.611-17-17s7.611-17 17-17H24v34z" fill="rgba(133, 77, 55, 1)" stroke="none"/>
  <path fill-rule="evenodd" d="M22 19h12v38H22z" fill="rgba(194, 76, 40, 1)" stroke="none"/>
  <circle cx="28" cy="48" r="3" fill-rule="evenodd" fill="rgba(0, 0, 0, 1)" stroke="none"/>
  <path fill-rule="evenodd" d="M68 29s3 1 3 4-4 5-4 5 2 .8 2 4-5 4-5 4 3 1 3 4-4.771 4-4.771 4H34V21h5c6.514 0 7-10 7-10V4c0-2 1-5 5-3s4 5.736 4 10a99.9 99.9 0 0 1-1 10h14a3.663 3.663 0 0 1 4 4c0 3-4 4-4 4z" fill="rgba(241, 205, 176, 1)" stroke="none"/>
</svg>
</g></svg></g></g>
<!-- /image 82922 -->

<!-- image 57161 -->
<g id="transformed-57161" data-image="57161" transform="translate(98.36669234721606, 211.79935850027175) rotate(326, 21.633307652783937, 21.200641499728263)"><g><svg version="1.1" width="43.266615305567875px" height="42.40128299945653px" viewBox="0 0 43.266615305567875 42.40128299945653"><g id="original-57161"><svg xmlns="http://www.w3.org/2000/svg" viewBox="0 0 62 61" xmlns:xlink="http://www.w3.org/1999/xlink" version="1.1" preserveAspectRatio="xMidYMid meet">
  <path fill-rule="evenodd" d="M31.081 25.234l13.03-13.03c-.72-2.954.28-6.466 2.882-9.068C49.401.73 52.588-.307 55.393.122l-5.388 6.712c-.352.438-.337 1.088.03 1.455l3.313 3.313c.375.375 1.019.381 1.455.03l6.652-5.339c.38 2.773-.662 5.901-3.033 8.272-2.4 2.401-5.578 3.438-8.376 3.018L36.738 30.891l12.616 12.615c2.955-.72 6.467.281 9.068 2.883 2.408 2.407 3.444 5.595 3.014 8.4L54.725 49.4c-.439-.352-1.089-.336-1.456.031l-3.312 3.312c-.375.375-.382 1.02-.031 1.456l5.34 6.651c-2.774.38-5.902-.661-8.273-3.033-2.4-2.4-3.438-5.577-3.018-8.376L31.081 36.548 18.188 49.44c.42 2.799-.617 5.976-3.018 8.376-2.371 2.372-5.5 3.413-8.272 3.033l5.34-6.651c.35-.437.343-1.08-.032-1.456L8.894 49.43c-.367-.367-1.017-.383-1.456-.03L.726 54.787c-.429-2.804.607-5.992 3.015-8.4 2.601-2.6 6.113-3.601 9.068-2.882L25.425 30.89 12.117 17.582c-2.798.42-5.975-.617-8.376-3.018C1.37 12.195.329 9.066.708 6.293l6.652 5.34c.436.35 1.08.344 1.455-.031l3.312-3.313c.368-.367.383-1.017.031-1.455L6.77.122c2.805-.43 5.992.607 8.4 3.014 2.601 2.602 3.602 6.114 2.882 9.069l13.03 13.029z" fill="rgba(147, 147, 147, 1)" stroke="none"/>
</svg>
</g></svg></g></g>
<!-- /image 57161 -->

<!-- image 89117 -->
<g id="transformed-89117" data-image="89117" transform="translate(-12.599976296283284, 172.03849002850566) rotate(344, 21.599976296283284, 25.96150997149434)"><g><svg version="1.1" width="43.19995259256657px" height="51.92301994298868px" viewBox="0 0 43.19995259256657 51.92301994298868"><g id="original-89117"><svg xmlns="http://www.w3.org/2000/svg" viewBox="0 0 40 48" xmlns:xlink="http://www.w3.org/1999/xlink" version="1.1" preserveAspectRatio="xMidYMid meet">
  <path fill-rule="evenodd" d="M33.503 17.67c2.04 17.137-8.43 28.645-22.369 26.575C5.535 43.413.885 39.656.885 33.996c0-5.661 4.589-10.25 10.249-10.25 4.271 0 7.751-.441 7.751-6.076" fill="rgba(255, 255, 255, 1)" stroke="none"/>
  <path fill-rule="evenodd" d="M21.765 20.55c0 5.635-3.48 6.077-7.751 6.077-5.661 0-10.249 4.588-10.249 10.249 0 5.66 4.65 9.417 10.249 10.249 13.939 2.07 24.409-9.438 22.369-26.575l-7.845-8.465-6.773 8.465" fill="rgba(153, 57, 110, 1)" stroke="none"/>
  <path fill-rule="evenodd" d="M14.325 45.384a22.62 22.62 0 0 1-3.323-.249C4.413 44.157-.015 39.681-.015 33.996c0-6.148 5.001-11.15 11.149-11.15 4.737 0 6.851-.747 6.851-5.176a.9.9 0 0 1 1.8 0c0 6.976-5.206 6.976-8.651 6.976-5.155 0-9.349 4.194-9.349 9.35 0 5.493 4.762 8.658 9.481 9.358 5.878.874 11.304-.769 15.274-4.625 4.878-4.74 7.09-12.376 6.069-20.953a.9.9 0 0 1 1.788-.212c1.087 9.138-1.319 17.323-6.603 22.455-3.617 3.514-8.313 5.365-13.469 5.365" fill="rgba(103, 26, 29, 1)" stroke="none"/>
  <path fill-rule="evenodd" d="M22.16 36.969c-2.313 1.73-5.272 2.496-8.551 2.009" fill="rgba(125, 41, 88, 1)" stroke="none"/>
  <path fill-rule="evenodd" d="M15.547 40.024c-.678 0-1.369-.052-2.07-.156a.9.9 0 0 1 .264-1.781c2.961.442 5.685-.196 7.879-1.839a.9.9 0 0 1 1.079 1.441c-2.061 1.543-4.504 2.335-7.152 2.335" fill="rgba(103, 26, 29, 1)" stroke="none"/>
  <path fill-rule="evenodd" d="M26.565 20.545s3.36-1.71 3.36-4.17c0 0 3.33 3.63 6.96 0-4.08 0-4.32-10.05-10.32-10.05s-6.24 10.05-10.32 10.05c3.63 3.63 6.96 0 6.96 0 0 2.46 3.36 4.17 3.36 4.17" fill="rgba(255, 255, 255, 1)" stroke="none"/>
  <path fill-rule="evenodd" d="M31.988 2.193a.9.9 0 0 1-.039-1.8 9.59 9.59 0 0 1 .414-.008.9.9 0 0 1 0 1.8c-.11 0-.222.002-.334.007l-.041.001" fill="rgba(103, 26, 29, 1)" stroke="none"/>
  <path fill-rule="evenodd" d="M27.285 7.225a.9.9 0 0 1-.9-.9c0-2.096.63-3.675 1.873-4.693a.9.9 0 1 1 1.14 1.393c-.805.659-1.213 1.77-1.213 3.3a.9.9 0 0 1-.9.9" fill="rgba(103, 26, 29, 1)" stroke="none"/>
  <path fill-rule="evenodd" d="M29.445 23.425s3.36-1.71 3.36-4.17c0 0 3.33 3.63 6.96 0-4.08 0-4.32-10.05-10.32-10.05s-6.24 10.05-10.32 10.05c3.63 3.63 6.96 0 6.96 0 0 2.46 3.36 4.17 3.36 4.17" fill="rgba(45, 176, 141, 1)" stroke="none"/>
  <path fill-rule="evenodd" d="M23.205 15.477a.9.9 0 0 1 .9.898c0 1.333 1.522 2.555 2.46 3.135.937-.58 2.46-1.802 2.46-3.135a.901.901 0 0 1 1.563-.608c.01.009 1.226 1.293 2.826 1.321a3.276 3.276 0 0 0 1.593-.405c-1.266-.864-2.136-2.55-2.987-4.198-1.334-2.586-2.715-5.26-5.455-5.26-2.741 0-4.121 2.674-5.455 5.26-.851 1.648-1.722 3.334-2.987 4.198a3.286 3.286 0 0 0 1.592.405c1.601-.028 2.817-1.312 2.829-1.324a.904.904 0 0 1 .661-.287zm3.36 5.968a.896.896 0 0 1-.409-.098c-.127-.064-2.569-1.33-3.497-3.388-.718.456-1.717.903-2.892.928-1.497.036-2.882-.6-4.159-1.876a.902.902 0 0 1 .637-1.536c1.296 0 2.208-1.769 3.265-3.816 1.434-2.777 3.218-6.234 7.055-6.234 3.836 0 5.621 3.457 7.055 6.235 1.057 2.046 1.969 3.815 3.265 3.815a.9.9 0 0 1 .636 1.536c-1.277 1.277-2.685 1.908-4.159 1.876-1.174-.025-2.173-.472-2.891-.928-.929 2.058-3.371 3.324-3.498 3.388a.895.895 0 0 1-.408.098z" fill="rgba(103, 26, 29, 1)" stroke="none"/>
</svg>
</g></svg></g></g>
<!-- /image 89117 -->
</defs><rect x="0" y="0" width="250" height="250" fill="rgba(239, 190, 40, 1)"></rect><use xlink:href="#transformed-82922" transform="translate(-250, -250)"></use><use xlink:href="#transformed-82922" transform="translate(0, -250)"></use><use xlink:href="#transformed-82922" transform="translate(250, -250)"></use><use xlink:href="#transformed-82922" transform="translate(-250, 0)"></use><use xlink:href="#transformed-82922" transform="translate(0, 0)"></use><use xlink:href="#transformed-82922" transform="translate(250, 0)"></use><use xlink:href="#transformed-82922" transform="translate(-250, 250)"></use><use xlink:href="#transformed-82922" transform="translate(0, 250)"></use><use xlink:href="#transformed-82922" transform="translate(250, 250)"></use><use xlink:href="#transformed-57161" transform="translate(-250, -250)"></use><use xlink:href="#transformed-57161" transform="translate(0, -250)"></use><use xlink:href="#transformed-57161" transform="translate(250, -250)"></use><use xlink:href="#transformed-57161" transform="translate(-250, 0)"></use><use xlink:href="#transformed-57161" transform="translate(0, 0)"></use><use xlink:href="#transformed-57161" transform="translate(250, 0)"></use><use xlink:href="#transformed-57161" transform="translate(-250, 250)"></use><use xlink:href="#transformed-57161" transform="translate(0, 250)"></use><use xlink:href="#transformed-57161" transform="translate(250, 250)"></use><use xlink:href="#transformed-89117" transform="translate(-250, -250)"></use><use xlink:href="#transformed-89117" transform="translate(0, -250)"></use><use xlink:href="#transformed-89117" transform="translate(250, -250)"></use><use xlink:href="#transformed-89117" transform="translate(-250, 0)"></use><use xlink:href="#transformed-89117" transform="translate(0, 0)"></use><use xlink:href="#transformed-89117" transform="translate(250, 0)"></use><use xlink:href="#transformed-89117" transform="translate(-250, 250)"></use><use xlink:href="#transformed-89117" transform="translate(0, 250)"></use><use xlink:href="#transformed-89117" transform="translate(250, 250)"></use></svg>